<svg width="33" height="33" viewBox="0 0 33 33" fill="none" xmlns="http://www.w3.org/2000/svg">
<path d="M16.5936 3.49033C20.8028 3.49033 21.3014 3.50635 22.9636 3.5822C24.5006 3.65234 25.3353 3.90915 25.8909 4.12498C26.6266 4.41095 27.1518 4.75261 27.7034 5.30421C28.255 5.85582 28.5967 6.38101 28.8826 7.11678C29.0985 7.67232 29.3553 8.50702 29.4255 10.0439C29.5013 11.7063 29.5173 12.2048 29.5173 16.414C29.5173 20.6232 29.5013 21.1218 29.4255 22.784C29.3553 24.321 29.0985 25.1557 28.8826 25.7112C28.5967 26.447 28.255 26.9722 27.7034 27.5238C27.1518 28.0754 26.6266 28.4171 25.8909 28.703C25.3353 28.9189 24.5006 29.1757 22.9636 29.2458C21.3016 29.3217 20.8031 29.3377 16.5936 29.3377C12.3842 29.3377 11.8856 29.3217 10.2236 29.2458C8.68665 29.1757 7.85195 28.9189 7.29647 28.703C6.56064 28.4171 6.03544 28.0754 5.48384 27.5238C4.93223 26.9722 4.59057 26.447 4.30466 25.7112C4.08878 25.1557 3.83197 24.321 3.76182 22.7841C3.68598 21.1218 3.66996 20.6232 3.66996 16.414C3.66996 12.2048 3.68598 11.7063 3.76182 10.044C3.83197 8.50702 4.08878 7.67232 4.30466 7.11678C4.59057 6.38101 4.93223 5.85582 5.48384 5.30421C6.03544 4.75261 6.56064 4.41095 7.29647 4.12498C7.85195 3.90915 8.68664 3.65234 10.2236 3.5822C11.8859 3.50635 12.3844 3.49033 16.5936 3.49033ZM16.5936 0.649902C12.3123 0.649902 11.7756 0.668049 10.0942 0.744767C8.41619 0.82136 7.27031 1.08781 6.26753 1.47753C5.23091 1.88039 4.35178 2.41942 3.47541 3.29579C2.59904 4.17216 2.06001 5.05128 1.65715 6.08791C1.26743 7.09068 1.00098 8.23657 0.924392 9.91453C0.847674 11.5959 0.82959 12.1327 0.82959 16.414C0.82959 20.6953 0.847674 21.2321 0.924392 22.9135C1.00098 24.5915 1.26743 25.7373 1.65715 26.7401C2.06001 27.7767 2.59904 28.6559 3.47541 29.5322C4.35178 30.4086 5.23091 30.9476 6.26753 31.3505C7.27031 31.7402 8.41619 32.0067 10.0942 32.0833C11.7756 32.16 12.3123 32.1781 16.5936 32.1781C20.8749 32.1781 21.4118 32.16 23.0931 32.0833C24.7711 32.0067 25.917 31.7402 26.9197 31.3505C27.9564 30.9476 28.8355 30.4086 29.7119 29.5322C30.5882 28.6559 31.1273 27.7767 31.5301 26.7401C31.9198 25.7373 32.1863 24.5915 32.2629 22.9135C32.3396 21.2321 32.3577 20.6953 32.3577 16.414C32.3577 12.1327 32.3396 11.5959 32.2629 9.91453C32.1863 8.23657 31.9198 7.09068 31.5301 6.08791C31.1273 5.05128 30.5882 4.17216 29.7119 3.29579C28.8355 2.41942 27.9564 1.88039 26.9197 1.47753C25.917 1.08781 24.7711 0.82136 23.0931 0.744767C21.4118 0.668049 20.8749 0.649902 16.5936 0.649902ZM16.5936 8.31892C12.1229 8.31892 8.49854 11.9432 8.49854 16.414C8.49854 20.8848 12.1229 24.5091 16.5936 24.5091C21.0644 24.5091 24.6887 20.8848 24.6887 16.414C24.6887 11.9432 21.0644 8.31892 16.5936 8.31892ZM16.5936 21.6687C13.6916 21.6687 11.3389 19.3161 11.3389 16.414C11.3389 13.5119 13.6916 11.1593 16.5936 11.1593C19.4957 11.1593 21.8484 13.5119 21.8484 16.414C21.8484 19.3161 19.4957 21.6687 16.5936 21.6687ZM26.9002 7.99909C26.9002 9.04386 26.0533 9.89082 25.0086 9.89082C23.9638 9.89082 23.1168 9.04386 23.1168 7.99909C23.1168 6.95433 23.9638 6.10743 25.0086 6.10743C26.0533 6.10743 26.9002 6.95433 26.9002 7.99909Z" fill="black"/>
</svg>
